<?xml version="1.0" encoding="UTF-8" standalone="no"?>
<svg
   xmlns:dc="http://purl.org/dc/elements/1.1/"
   xmlns:cc="http://creativecommons.org/ns#"
   xmlns:rdf="http://www.w3.org/1999/02/22-rdf-syntax-ns#"
   xmlns:svg="http://www.w3.org/2000/svg"
   xmlns="http://www.w3.org/2000/svg"
   version="1.1"
   id="svg3255"
   height="150"
   width="150">
  <defs
     id="defs3257" />
  <metadata
     id="metadata3260">
    <rdf:RDF>
      <cc:Work
         rdf:about="">
        <dc:format>image/svg+xml</dc:format>
        <dc:type
           rdf:resource="http://purl.org/dc/dcmitype/StillImage" />
        <dc:title></dc:title>
      </cc:Work>
    </rdf:RDF>
  </metadata>
  <g
     style="display:inline"
     id="layer3">
    <g
       transform="matrix(3.3333333,0,0,3.3333333,-225,-1387.1259)"
       id="g3602"
       style="display:inline">
      <circle
         style="display:inline"
         transform="matrix(1.3605853,0,0,1.3605853,67.5,416.1364)"
         cx="16.537001"
         cy="16.538"
         r="16.537001"
         id="circle239" />
      <path
         style="display:inline;fill:#f9cb0d"
         d="m 80.22147,421.69847 c -9.37035,5.41105 -12.58269,17.39372 -7.173,26.76408 3.56201,6.16753 9.97037,9.66695 16.60866,9.79485 -0.19456,-0.66124 -0.3347,-1.33609 -0.61907,-1.96741 -0.48844,-1.08574 -0.84492,-2.32116 -1.46126,-3.35792 -1.36059,-2.28986 -3.57154,-3.83413 -4.99063,-6.06549 -1.46127,-2.29667 -2.62729,-4.86545 -3.23955,-7.52404 -0.50206,-2.19054 -0.10069,-5.68996 1.08438,-7.63424 1.94292,-2.59464 4.77566,-4.96886 8.16351,-4.03686 2.31708,0.63812 4.5362,0.0122 6.85463,-0.3211 0.74288,-0.10748 2.84226,0.0531 1.9089,1.41637 -0.68029,0.99595 -1.99597,1.1497 -2.76062,2.03 -0.92248,1.05853 -1.9851,1.97012 -2.71573,3.1824 -0.80819,1.33746 -1.50345,2.68308 -2.49532,3.89672 -0.78097,0.95377 0.1864,2.29395 0.49117,3.26132 0.44356,1.38916 1.17147,2.58784 1.90755,3.83822 1.33201,2.26401 3.39057,3.80828 5.35934,5.48452 1.50345,1.28167 2.81097,2.7579 4.05727,4.28856 8.28596,-5.74983 10.91325,-16.98827 5.77976,-25.87969 -5.40832,-9.37035 -17.391,-12.57997 -26.75999,-7.17029 z"
         id="path241" />
    </g>
  </g>
</svg>
