<?xml version="1.0" encoding="UTF-8" standalone="no"?>
<!-- Created with Inkscape (http://www.inkscape.org/) -->

<svg
   xmlns:dc="http://purl.org/dc/elements/1.1/"
   xmlns:cc="http://creativecommons.org/ns#"
   xmlns:rdf="http://www.w3.org/1999/02/22-rdf-syntax-ns#"
   xmlns:svg="http://www.w3.org/2000/svg"
   xmlns="http://www.w3.org/2000/svg"
   xmlns:sodipodi="http://sodipodi.sourceforge.net/DTD/sodipodi-0.dtd"
   xmlns:inkscape="http://www.inkscape.org/namespaces/inkscape"
   width="100"
   height="100"
   viewBox="0 0 100 100"
   id="svg9289"
   version="1.1"
   inkscape:version="0.91 r13725"
   sodipodi:docname="anchor.svg">
  <defs
     id="defs9291" />
  <sodipodi:namedview
     id="base"
     pagecolor="#ffffff"
     bordercolor="#666666"
     borderopacity="1.0"
     inkscape:pageopacity="0.0"
     inkscape:pageshadow="2"
     inkscape:zoom="2.8"
     inkscape:cx="50.089563"
     inkscape:cy="46.392905"
     inkscape:document-units="px"
     inkscape:current-layer="layer1"
     showgrid="false"
     units="px"
     inkscape:window-width="1301"
     inkscape:window-height="744"
     inkscape:window-x="65"
     inkscape:window-y="24"
     inkscape:window-maximized="1" />
  <metadata
     id="metadata9294">
    <rdf:RDF>
      <cc:Work
         rdf:about="">
        <dc:format>image/svg+xml</dc:format>
        <dc:type
           rdf:resource="http://purl.org/dc/dcmitype/StillImage" />
        <dc:title></dc:title>
      </cc:Work>
    </rdf:RDF>
  </metadata>
  <g
     inkscape:label="Ebene 1"
     inkscape:groupmode="layer"
     id="layer1"
     transform="translate(0,-952.36216)">
    <path
       inkscape:connector-curvature="0"
       id="path4942-1-9-9-3-88"
       d="m 99,1001.3476 -11.851765,0 0,7.1936 0,13.8485 c 0.118874,9.1341 -7.364349,12.6477 -30.158868,13.3103 l 0,-13.3103 15.070137,0 0,-13.8485 -15.070137,0 0,-11.83322 A 22.079436,22.079436 0 0 0 72.0781,975.79076 22.079436,22.079436 0 0 0 49.999999,953.708 a 22.079436,22.079436 0 0 0 -22.0781,22.08276 22.079436,22.079436 0 0 0 15.088732,20.92193 l 0,11.82851 -15.074804,0 0,13.8485 15.074804,0 0,13.3567 c -22.109957,-0.4606 -30.039641,-4.0625 -30.163536,-13.3567 l 0,-13.8485 0,-7.1936 -11.8470951,0 0,18.1119 c 0,21.1717 15.0453021,31.5568 48.6006151,31.5568 C 86.617973,1051.0163 99,1039.2996 99,1019.0601 l 0,-17.7125 z M 60.755772,975.79076 a 10.756649,10.190509 0 0 1 -10.755773,10.18923 10.756649,10.190509 0 0 1 -10.755775,-10.18923 10.756649,10.190509 0 0 1 10.755775,-10.19381 10.756649,10.190509 0 0 1 10.755773,10.19381 z"
       style="font-style:normal;font-variant:normal;font-weight:normal;font-stretch:condensed;font-size:medium;line-height:125%;font-family:Rockwell;-inkscape-font-specification:'Rockwell, Condensed';text-align:start;letter-spacing:0px;word-spacing:0px;writing-mode:lr-tb;text-anchor:start;display:inline;fill:#292b2c;fill-opacity:1;stroke:none;stroke-width:1px;stroke-linecap:butt;stroke-linejoin:miter;stroke-opacity:1" />
  </g>
</svg>
