<?xml version="1.0" encoding="UTF-8" standalone="no"?>
<!-- Created with Inkscape (http://www.inkscape.org/) -->

<svg
   xmlns:dc="http://purl.org/dc/elements/1.1/"
   xmlns:cc="http://creativecommons.org/ns#"
   xmlns:rdf="http://www.w3.org/1999/02/22-rdf-syntax-ns#"
   xmlns:svg="http://www.w3.org/2000/svg"
   xmlns="http://www.w3.org/2000/svg"
   xmlns:sodipodi="http://sodipodi.sourceforge.net/DTD/sodipodi-0.dtd"
   xmlns:inkscape="http://www.inkscape.org/namespaces/inkscape"
   width="300"
   height="160"
   viewBox="0 0 300 160"
   id="svg2"
   version="1.1"
   inkscape:version="0.91 r13725"
   sodipodi:docname="elbdigger-logo-2.svg">
  <defs
     id="defs4" />
  <sodipodi:namedview
     id="base"
     pagecolor="#ffffff"
     bordercolor="#666666"
     borderopacity="1.0"
     inkscape:pageopacity="0.0"
     inkscape:pageshadow="2"
     inkscape:zoom="1.979899"
     inkscape:cx="154.54973"
     inkscape:cy="62.168604"
     inkscape:document-units="px"
     inkscape:current-layer="layer2"
     showgrid="false"
     units="px"
     inkscape:window-width="1920"
     inkscape:window-height="1056"
     inkscape:window-x="0"
     inkscape:window-y="24"
     inkscape:window-maximized="1" />
  <metadata
     id="metadata7">
    <rdf:RDF>
      <cc:Work
         rdf:about="">
        <dc:format>image/svg+xml</dc:format>
        <dc:type
           rdf:resource="http://purl.org/dc/dcmitype/StillImage" />
        <dc:title />
      </cc:Work>
    </rdf:RDF>
  </metadata>
  <g
     inkscape:groupmode="layer"
     id="layer2"
     inkscape:label="Ebene 2"
     style="display:inline">
    <path
       style="color:#000000;clip-rule:nonzero;display:inline;overflow:visible;visibility:visible;opacity:1;isolation:auto;mix-blend-mode:normal;color-interpolation:sRGB;color-interpolation-filters:linearRGB;solid-color:#000000;solid-opacity:1;fill:#5db15b;fill-opacity:1;fill-rule:nonzero;stroke:none;stroke-width:1px;stroke-linecap:butt;stroke-linejoin:miter;stroke-miterlimit:4;stroke-dasharray:none;stroke-dashoffset:0;stroke-opacity:1;color-rendering:auto;image-rendering:auto;shape-rendering:auto;text-rendering:auto;enable-background:accumulate"
       d="M 59.951172 50.197266 A 29.803621 29.803625 0 0 0 30.148438 80 A 29.803621 29.803625 0 0 0 59.951172 109.80273 A 29.803621 29.803625 0 0 0 89.755859 80 A 29.803621 29.803625 0 0 0 59.951172 50.197266 z M 59.951172 67.416016 A 12.583752 12.583753 0 0 1 61.207031 67.478516 A 12.583752 12.583753 0 0 1 62.451172 67.667969 A 12.583752 12.583753 0 0 1 63.669922 67.978516 A 12.583752 12.583753 0 0 1 64.851562 68.410156 A 12.583752 12.583753 0 0 1 65.984375 68.957031 A 12.583752 12.583753 0 0 1 67.056641 69.613281 A 12.583752 12.583753 0 0 1 68.058594 70.375 A 12.583752 12.583753 0 0 1 68.978516 71.232422 A 12.583752 12.583753 0 0 1 69.808594 72.177734 A 12.583752 12.583753 0 0 1 70.541016 73.201172 A 12.583752 12.583753 0 0 1 71.166016 74.292969 A 12.583752 12.583753 0 0 1 71.679688 75.439453 A 12.583752 12.583753 0 0 1 72.076172 76.634766 A 12.583752 12.583753 0 0 1 72.351562 77.861328 A 12.583752 12.583753 0 0 1 72.503906 79.109375 A 12.583752 12.583753 0 0 1 72.535156 80 A 12.583752 12.583753 0 0 1 72.472656 81.255859 A 12.583752 12.583753 0 0 1 72.285156 82.5 A 12.583752 12.583753 0 0 1 71.972656 83.71875 A 12.583752 12.583753 0 0 1 71.541016 84.900391 A 12.583752 12.583753 0 0 1 70.994141 86.033203 A 12.583752 12.583753 0 0 1 70.337891 87.105469 A 12.583752 12.583753 0 0 1 69.576172 88.107422 A 12.583752 12.583753 0 0 1 68.71875 89.027344 A 12.583752 12.583753 0 0 1 67.773438 89.857422 A 12.583752 12.583753 0 0 1 66.75 90.587891 A 12.583752 12.583753 0 0 1 65.660156 91.214844 A 12.583752 12.583753 0 0 1 64.511719 91.728516 A 12.583752 12.583753 0 0 1 63.318359 92.125 A 12.583752 12.583753 0 0 1 62.089844 92.400391 A 12.583752 12.583753 0 0 1 60.841797 92.552734 A 12.583752 12.583753 0 0 1 59.951172 92.583984 A 12.583752 12.583753 0 0 1 58.695312 92.521484 A 12.583752 12.583753 0 0 1 57.451172 92.332031 A 12.583752 12.583753 0 0 1 56.232422 92.021484 A 12.583752 12.583753 0 0 1 55.050781 91.589844 A 12.583752 12.583753 0 0 1 53.917969 91.042969 A 12.583752 12.583753 0 0 1 52.845703 90.386719 A 12.583752 12.583753 0 0 1 51.845703 89.625 A 12.583752 12.583753 0 0 1 50.923828 88.767578 A 12.583752 12.583753 0 0 1 50.09375 87.822266 A 12.583752 12.583753 0 0 1 49.363281 86.798828 A 12.583752 12.583753 0 0 1 48.736328 85.707031 A 12.583752 12.583753 0 0 1 48.222656 84.560547 A 12.583752 12.583753 0 0 1 47.826172 83.365234 A 12.583752 12.583753 0 0 1 47.550781 82.138672 A 12.583752 12.583753 0 0 1 47.398438 80.890625 A 12.583752 12.583753 0 0 1 47.367188 80 A 12.583752 12.583753 0 0 1 47.429688 78.744141 A 12.583752 12.583753 0 0 1 47.619141 77.5 A 12.583752 12.583753 0 0 1 47.929688 76.28125 A 12.583752 12.583753 0 0 1 48.361328 75.099609 A 12.583752 12.583753 0 0 1 48.908203 73.966797 A 12.583752 12.583753 0 0 1 49.566406 72.894531 A 12.583752 12.583753 0 0 1 50.326172 71.892578 A 12.583752 12.583753 0 0 1 51.183594 70.972656 A 12.583752 12.583753 0 0 1 52.128906 70.142578 A 12.583752 12.583753 0 0 1 53.152344 69.412109 A 12.583752 12.583753 0 0 1 54.244141 68.785156 A 12.583752 12.583753 0 0 1 55.392578 68.271484 A 12.583752 12.583753 0 0 1 56.585938 67.875 A 12.583752 12.583753 0 0 1 57.8125 67.599609 A 12.583752 12.583753 0 0 1 59.060547 67.447266 A 12.583752 12.583753 0 0 1 59.951172 67.416016 z "
       id="path3443-0-5-0-4-1-6-4-9-9-9-9" />
    <path
       style="color:#000000;clip-rule:nonzero;display:inline;overflow:visible;visibility:visible;opacity:1;isolation:auto;mix-blend-mode:normal;color-interpolation:sRGB;color-interpolation-filters:linearRGB;solid-color:#000000;solid-opacity:1;fill:#000000;fill-opacity:1;fill-rule:nonzero;stroke:none;stroke-width:1px;stroke-linecap:butt;stroke-linejoin:miter;stroke-miterlimit:4;stroke-dasharray:none;stroke-dashoffset:0;stroke-opacity:1;color-rendering:auto;image-rendering:auto;shape-rendering:auto;text-rendering:auto;enable-background:accumulate"
       d="M 59.951172 22.048828 A 57.951485 57.951492 0 0 0 2 80 A 57.951485 57.951492 0 0 0 59.951172 137.95117 A 57.951485 57.951492 0 0 0 117.90234 80 A 57.951485 57.951492 0 0 0 59.951172 22.048828 z M 59.951172 50.197266 A 29.803621 29.803625 0 0 1 62.927734 50.345703 A 29.803621 29.803625 0 0 1 65.873047 50.791016 A 29.803621 29.803625 0 0 1 68.759766 51.527344 A 29.803621 29.803625 0 0 1 71.556641 52.548828 A 29.803621 29.803625 0 0 1 74.240234 53.845703 A 29.803621 29.803625 0 0 1 76.779297 55.402344 A 29.803621 29.803625 0 0 1 79.152344 57.205078 A 29.803621 29.803625 0 0 1 81.332031 59.236328 A 29.803621 29.803625 0 0 1 83.296875 61.474609 A 29.803621 29.803625 0 0 1 85.03125 63.896484 A 29.803621 29.803625 0 0 1 86.511719 66.480469 A 29.803621 29.803625 0 0 1 87.730469 69.201172 A 29.803621 29.803625 0 0 1 88.669922 72.027344 A 29.803621 29.803625 0 0 1 89.322266 74.933594 A 29.803621 29.803625 0 0 1 89.679688 77.892578 A 29.803621 29.803625 0 0 1 89.755859 80 A 29.803621 29.803625 0 0 1 89.605469 82.974609 A 29.803621 29.803625 0 0 1 89.160156 85.921875 A 29.803621 29.803625 0 0 1 88.423828 88.806641 A 29.803621 29.803625 0 0 1 87.402344 91.605469 A 29.803621 29.803625 0 0 1 86.107422 94.289062 A 29.803621 29.803625 0 0 1 84.548828 96.828125 A 29.803621 29.803625 0 0 1 82.746094 99.199219 A 29.803621 29.803625 0 0 1 80.716797 101.37891 A 29.803621 29.803625 0 0 1 78.478516 103.3457 A 29.803621 29.803625 0 0 1 76.054688 105.07812 A 29.803621 29.803625 0 0 1 73.470703 106.56055 A 29.803621 29.803625 0 0 1 70.751953 107.77734 A 29.803621 29.803625 0 0 1 67.923828 108.7168 A 29.803621 29.803625 0 0 1 65.017578 109.36914 A 29.803621 29.803625 0 0 1 62.060547 109.72852 A 29.803621 29.803625 0 0 1 59.951172 109.80273 A 29.803621 29.803625 0 0 1 56.976562 109.6543 A 29.803621 29.803625 0 0 1 54.03125 109.20898 A 29.803621 29.803625 0 0 1 51.144531 108.47266 A 29.803621 29.803625 0 0 1 48.345703 107.45117 A 29.803621 29.803625 0 0 1 45.662109 106.1543 A 29.803621 29.803625 0 0 1 43.123047 104.59766 A 29.803621 29.803625 0 0 1 40.751953 102.79492 A 29.803621 29.803625 0 0 1 38.572266 100.76367 A 29.803621 29.803625 0 0 1 36.605469 98.525391 A 29.803621 29.803625 0 0 1 34.873047 96.103516 A 29.803621 29.803625 0 0 1 33.390625 93.519531 A 29.803621 29.803625 0 0 1 32.173828 90.798828 A 29.803621 29.803625 0 0 1 31.234375 87.972656 A 29.803621 29.803625 0 0 1 30.582031 85.066406 A 29.803621 29.803625 0 0 1 30.222656 82.107422 A 29.803621 29.803625 0 0 1 30.148438 80 A 29.803621 29.803625 0 0 1 30.296875 77.025391 A 29.803621 29.803625 0 0 1 30.742188 74.078125 A 29.803621 29.803625 0 0 1 31.478516 71.193359 A 29.803621 29.803625 0 0 1 32.5 68.394531 A 29.803621 29.803625 0 0 1 33.796875 65.710938 A 29.803621 29.803625 0 0 1 35.353516 63.171875 A 29.803621 29.803625 0 0 1 37.15625 60.800781 A 29.803621 29.803625 0 0 1 39.1875 58.621094 A 29.803621 29.803625 0 0 1 41.425781 56.654297 A 29.803621 29.803625 0 0 1 43.847656 54.921875 A 29.803621 29.803625 0 0 1 46.433594 53.439453 A 29.803621 29.803625 0 0 1 49.152344 52.222656 A 29.803621 29.803625 0 0 1 51.978516 51.283203 A 29.803621 29.803625 0 0 1 54.886719 50.630859 A 29.803621 29.803625 0 0 1 57.84375 50.271484 A 29.803621 29.803625 0 0 1 59.951172 50.197266 z "
       id="path3443-7-0-8-6-3-1-0-4-9-3" />
    <path
       style="color:#000000;clip-rule:nonzero;display:inline;overflow:visible;visibility:visible;opacity:1;isolation:auto;mix-blend-mode:normal;color-interpolation:sRGB;color-interpolation-filters:linearRGB;solid-color:#000000;solid-opacity:1;fill:#c37e7a;fill-opacity:1;fill-rule:nonzero;stroke:none;stroke-width:1px;stroke-linecap:butt;stroke-linejoin:miter;stroke-miterlimit:4;stroke-dasharray:none;stroke-dashoffset:0;stroke-opacity:1;color-rendering:auto;image-rendering:auto;shape-rendering:auto;text-rendering:auto;enable-background:accumulate"
       d="M 240.04883 50.197266 A 29.803621 29.803625 0 0 0 210.24414 80 A 29.803621 29.803625 0 0 0 240.04883 109.80273 A 29.803621 29.803625 0 0 0 269.85156 80 A 29.803621 29.803625 0 0 0 240.04883 50.197266 z M 240.04883 67.416016 A 12.583752 12.583753 0 0 1 241.30469 67.478516 A 12.583752 12.583753 0 0 1 242.54883 67.667969 A 12.583752 12.583753 0 0 1 243.76758 67.978516 A 12.583752 12.583753 0 0 1 244.94922 68.410156 A 12.583752 12.583753 0 0 1 246.08203 68.957031 A 12.583752 12.583753 0 0 1 247.1543 69.613281 A 12.583752 12.583753 0 0 1 248.1543 70.375 A 12.583752 12.583753 0 0 1 249.07617 71.232422 A 12.583752 12.583753 0 0 1 249.90625 72.177734 A 12.583752 12.583753 0 0 1 250.63672 73.201172 A 12.583752 12.583753 0 0 1 251.26367 74.292969 A 12.583752 12.583753 0 0 1 251.77734 75.439453 A 12.583752 12.583753 0 0 1 252.17383 76.634766 A 12.583752 12.583753 0 0 1 252.44922 77.861328 A 12.583752 12.583753 0 0 1 252.60156 79.109375 A 12.583752 12.583753 0 0 1 252.63281 80 A 12.583752 12.583753 0 0 1 252.57031 81.255859 A 12.583752 12.583753 0 0 1 252.38086 82.5 A 12.583752 12.583753 0 0 1 252.07031 83.71875 A 12.583752 12.583753 0 0 1 251.63867 84.900391 A 12.583752 12.583753 0 0 1 251.0918 86.033203 A 12.583752 12.583753 0 0 1 250.43359 87.105469 A 12.583752 12.583753 0 0 1 249.67383 88.107422 A 12.583752 12.583753 0 0 1 248.81641 89.027344 A 12.583752 12.583753 0 0 1 247.87109 89.857422 A 12.583752 12.583753 0 0 1 246.84766 90.587891 A 12.583752 12.583753 0 0 1 245.75586 91.214844 A 12.583752 12.583753 0 0 1 244.60742 91.728516 A 12.583752 12.583753 0 0 1 243.41406 92.125 A 12.583752 12.583753 0 0 1 242.1875 92.400391 A 12.583752 12.583753 0 0 1 240.93945 92.552734 A 12.583752 12.583753 0 0 1 240.04883 92.583984 A 12.583752 12.583753 0 0 1 238.79297 92.521484 A 12.583752 12.583753 0 0 1 237.54883 92.332031 A 12.583752 12.583753 0 0 1 236.33008 92.021484 A 12.583752 12.583753 0 0 1 235.14844 91.589844 A 12.583752 12.583753 0 0 1 234.01562 91.042969 A 12.583752 12.583753 0 0 1 232.94336 90.386719 A 12.583752 12.583753 0 0 1 231.94141 89.625 A 12.583752 12.583753 0 0 1 231.02148 88.767578 A 12.583752 12.583753 0 0 1 230.19141 87.822266 A 12.583752 12.583753 0 0 1 229.45898 86.798828 A 12.583752 12.583753 0 0 1 228.83398 85.707031 A 12.583752 12.583753 0 0 1 228.32031 84.560547 A 12.583752 12.583753 0 0 1 227.92383 83.365234 A 12.583752 12.583753 0 0 1 227.64844 82.138672 A 12.583752 12.583753 0 0 1 227.49609 80.890625 A 12.583752 12.583753 0 0 1 227.46484 80 A 12.583752 12.583753 0 0 1 227.52734 78.744141 A 12.583752 12.583753 0 0 1 227.71484 77.5 A 12.583752 12.583753 0 0 1 228.02734 76.28125 A 12.583752 12.583753 0 0 1 228.45898 75.099609 A 12.583752 12.583753 0 0 1 229.00586 73.966797 A 12.583752 12.583753 0 0 1 229.66211 72.894531 A 12.583752 12.583753 0 0 1 230.42383 71.892578 A 12.583752 12.583753 0 0 1 231.28125 70.972656 A 12.583752 12.583753 0 0 1 232.22656 70.142578 A 12.583752 12.583753 0 0 1 233.25 69.412109 A 12.583752 12.583753 0 0 1 234.33984 68.785156 A 12.583752 12.583753 0 0 1 235.48828 68.271484 A 12.583752 12.583753 0 0 1 236.68164 67.875 A 12.583752 12.583753 0 0 1 237.91016 67.599609 A 12.583752 12.583753 0 0 1 239.1582 67.447266 A 12.583752 12.583753 0 0 1 240.04883 67.416016 z "
       id="path3443-0-5-0-4-1-6-7-7-0-4-3-8" />
    <path
       style="color:#000000;clip-rule:nonzero;display:inline;overflow:visible;visibility:visible;opacity:1;isolation:auto;mix-blend-mode:normal;color-interpolation:sRGB;color-interpolation-filters:linearRGB;solid-color:#000000;solid-opacity:1;fill:#000000;fill-opacity:1;fill-rule:nonzero;stroke:none;stroke-width:1px;stroke-linecap:butt;stroke-linejoin:miter;stroke-miterlimit:4;stroke-dasharray:none;stroke-dashoffset:0;stroke-opacity:1;color-rendering:auto;image-rendering:auto;shape-rendering:auto;text-rendering:auto;enable-background:accumulate"
       d="M 240.04883 22.048828 A 57.951485 57.951492 0 0 0 182.09766 80 A 57.951485 57.951492 0 0 0 240.04883 137.95117 A 57.951485 57.951492 0 0 0 298 80 A 57.951485 57.951492 0 0 0 240.04883 22.048828 z M 240.04883 50.197266 A 29.803621 29.803625 0 0 1 243.02344 50.345703 A 29.803621 29.803625 0 0 1 245.96875 50.791016 A 29.803621 29.803625 0 0 1 248.85547 51.527344 A 29.803621 29.803625 0 0 1 251.6543 52.548828 A 29.803621 29.803625 0 0 1 254.33789 53.845703 A 29.803621 29.803625 0 0 1 256.87695 55.402344 A 29.803621 29.803625 0 0 1 259.24805 57.205078 A 29.803621 29.803625 0 0 1 261.42773 59.236328 A 29.803621 29.803625 0 0 1 263.39453 61.474609 A 29.803621 29.803625 0 0 1 265.12695 63.896484 A 29.803621 29.803625 0 0 1 266.60938 66.480469 A 29.803621 29.803625 0 0 1 267.82617 69.201172 A 29.803621 29.803625 0 0 1 268.76562 72.027344 A 29.803621 29.803625 0 0 1 269.41797 74.933594 A 29.803621 29.803625 0 0 1 269.77734 77.892578 A 29.803621 29.803625 0 0 1 269.85156 80 A 29.803621 29.803625 0 0 1 269.70312 82.974609 A 29.803621 29.803625 0 0 1 269.25781 85.921875 A 29.803621 29.803625 0 0 1 268.52148 88.806641 A 29.803621 29.803625 0 0 1 267.5 91.605469 A 29.803621 29.803625 0 0 1 266.20312 94.289062 A 29.803621 29.803625 0 0 1 264.64648 96.828125 A 29.803621 29.803625 0 0 1 262.84375 99.199219 A 29.803621 29.803625 0 0 1 260.8125 101.37891 A 29.803621 29.803625 0 0 1 258.57422 103.3457 A 29.803621 29.803625 0 0 1 256.15234 105.07812 A 29.803621 29.803625 0 0 1 253.56641 106.56055 A 29.803621 29.803625 0 0 1 250.84766 107.77734 A 29.803621 29.803625 0 0 1 248.02148 108.7168 A 29.803621 29.803625 0 0 1 245.11328 109.36914 A 29.803621 29.803625 0 0 1 242.15625 109.72852 A 29.803621 29.803625 0 0 1 240.04883 109.80273 A 29.803621 29.803625 0 0 1 237.07227 109.6543 A 29.803621 29.803625 0 0 1 234.12695 109.20898 A 29.803621 29.803625 0 0 1 231.24023 108.47266 A 29.803621 29.803625 0 0 1 228.44336 107.45117 A 29.803621 29.803625 0 0 1 225.75977 106.1543 A 29.803621 29.803625 0 0 1 223.2207 104.59766 A 29.803621 29.803625 0 0 1 220.84766 102.79492 A 29.803621 29.803625 0 0 1 218.66797 100.76367 A 29.803621 29.803625 0 0 1 216.70312 98.525391 A 29.803621 29.803625 0 0 1 214.96875 96.103516 A 29.803621 29.803625 0 0 1 213.48633 93.519531 A 29.803621 29.803625 0 0 1 212.26953 90.798828 A 29.803621 29.803625 0 0 1 211.33008 87.972656 A 29.803621 29.803625 0 0 1 210.67773 85.066406 A 29.803621 29.803625 0 0 1 210.32031 82.107422 A 29.803621 29.803625 0 0 1 210.24414 80 A 29.803621 29.803625 0 0 1 210.39453 77.025391 A 29.803621 29.803625 0 0 1 210.83984 74.078125 A 29.803621 29.803625 0 0 1 211.57617 71.193359 A 29.803621 29.803625 0 0 1 212.59766 68.394531 A 29.803621 29.803625 0 0 1 213.89258 65.710938 A 29.803621 29.803625 0 0 1 215.45117 63.171875 A 29.803621 29.803625 0 0 1 217.25391 60.800781 A 29.803621 29.803625 0 0 1 219.2832 58.621094 A 29.803621 29.803625 0 0 1 221.52148 56.654297 A 29.803621 29.803625 0 0 1 223.94531 54.921875 A 29.803621 29.803625 0 0 1 226.5293 53.439453 A 29.803621 29.803625 0 0 1 229.24805 52.222656 A 29.803621 29.803625 0 0 1 232.07617 51.283203 A 29.803621 29.803625 0 0 1 234.98242 50.630859 A 29.803621 29.803625 0 0 1 237.93945 50.271484 A 29.803621 29.803625 0 0 1 240.04883 50.197266 z "
       id="path3443-7-0-8-6-3-5-8-1-1-4-5" />
    <path
       style="color:#000000;clip-rule:nonzero;display:inline;overflow:visible;visibility:visible;opacity:1;isolation:auto;mix-blend-mode:normal;color-interpolation:sRGB;color-interpolation-filters:linearRGB;solid-color:#000000;solid-opacity:1;fill:#e6ad29;fill-opacity:1;fill-rule:nonzero;stroke:none;stroke-width:1px;stroke-linecap:butt;stroke-linejoin:miter;stroke-miterlimit:4;stroke-dasharray:none;stroke-dashoffset:0;stroke-opacity:1;color-rendering:auto;image-rendering:auto;shape-rendering:auto;text-rendering:auto;enable-background:accumulate"
       d="M 150 40.160156 A 39.839024 39.839027 0 0 0 110.16016 80 A 39.839024 39.839027 0 0 0 150 119.83984 A 39.839024 39.839027 0 0 0 189.83984 80 A 39.839024 39.839027 0 0 0 150 40.160156 z M 150 63.179688 A 16.820921 16.820923 0 0 1 151.67969 63.263672 A 16.820921 16.820923 0 0 1 153.3418 63.513672 A 16.820921 16.820923 0 0 1 154.9707 63.929688 A 16.820921 16.820923 0 0 1 156.55078 64.507812 A 16.820921 16.820923 0 0 1 158.06445 65.238281 A 16.820921 16.820923 0 0 1 159.49805 66.117188 A 16.820921 16.820923 0 0 1 160.83594 67.134766 A 16.820921 16.820923 0 0 1 162.06641 68.28125 A 16.820921 16.820923 0 0 1 163.17578 69.544922 A 16.820921 16.820923 0 0 1 164.1543 70.912109 A 16.820921 16.820923 0 0 1 164.99023 72.369141 A 16.820921 16.820923 0 0 1 165.67773 73.904297 A 16.820921 16.820923 0 0 1 166.20703 75.5 A 16.820921 16.820923 0 0 1 166.57617 77.140625 A 16.820921 16.820923 0 0 1 166.7793 78.810547 A 16.820921 16.820923 0 0 1 166.82031 80 A 16.820921 16.820923 0 0 1 166.73633 81.679688 A 16.820921 16.820923 0 0 1 166.48633 83.341797 A 16.820921 16.820923 0 0 1 166.07031 84.970703 A 16.820921 16.820923 0 0 1 165.49219 86.550781 A 16.820921 16.820923 0 0 1 164.76172 88.064453 A 16.820921 16.820923 0 0 1 163.88281 89.498047 A 16.820921 16.820923 0 0 1 162.86523 90.835938 A 16.820921 16.820923 0 0 1 161.71875 92.066406 A 16.820921 16.820923 0 0 1 160.45508 93.175781 A 16.820921 16.820923 0 0 1 159.08789 94.154297 A 16.820921 16.820923 0 0 1 157.63086 94.990234 A 16.820921 16.820923 0 0 1 156.0957 95.677734 A 16.820921 16.820923 0 0 1 154.5 96.207031 A 16.820921 16.820923 0 0 1 152.85938 96.576172 A 16.820921 16.820923 0 0 1 151.18945 96.779297 A 16.820921 16.820923 0 0 1 150 96.820312 A 16.820921 16.820923 0 0 1 148.32031 96.736328 A 16.820921 16.820923 0 0 1 146.6582 96.486328 A 16.820921 16.820923 0 0 1 145.0293 96.070312 A 16.820921 16.820923 0 0 1 143.44922 95.492188 A 16.820921 16.820923 0 0 1 141.93555 94.761719 A 16.820921 16.820923 0 0 1 140.50195 93.882812 A 16.820921 16.820923 0 0 1 139.16406 92.865234 A 16.820921 16.820923 0 0 1 137.93359 91.71875 A 16.820921 16.820923 0 0 1 136.82422 90.455078 A 16.820921 16.820923 0 0 1 135.8457 89.087891 A 16.820921 16.820923 0 0 1 135.00977 87.630859 A 16.820921 16.820923 0 0 1 134.32227 86.095703 A 16.820921 16.820923 0 0 1 133.79297 84.5 A 16.820921 16.820923 0 0 1 133.42383 82.859375 A 16.820921 16.820923 0 0 1 133.2207 81.189453 A 16.820921 16.820923 0 0 1 133.17969 80 A 16.820921 16.820923 0 0 1 133.26367 78.320312 A 16.820921 16.820923 0 0 1 133.51367 76.658203 A 16.820921 16.820923 0 0 1 133.92969 75.029297 A 16.820921 16.820923 0 0 1 134.50781 73.449219 A 16.820921 16.820923 0 0 1 135.23828 71.935547 A 16.820921 16.820923 0 0 1 136.11719 70.501953 A 16.820921 16.820923 0 0 1 137.13477 69.164062 A 16.820921 16.820923 0 0 1 138.28125 67.933594 A 16.820921 16.820923 0 0 1 139.54492 66.824219 A 16.820921 16.820923 0 0 1 140.91211 65.845703 A 16.820921 16.820923 0 0 1 142.36914 65.009766 A 16.820921 16.820923 0 0 1 143.9043 64.322266 A 16.820921 16.820923 0 0 1 145.5 63.792969 A 16.820921 16.820923 0 0 1 147.14062 63.423828 A 16.820921 16.820923 0 0 1 148.81055 63.220703 A 16.820921 16.820923 0 0 1 150 63.179688 z "
       id="path3443-0-5-0-4-1-6-3-3-3-2-2-4" />
    <path
       style="color:#000000;clip-rule:nonzero;display:inline;overflow:visible;visibility:visible;opacity:1;isolation:auto;mix-blend-mode:normal;color-interpolation:sRGB;color-interpolation-filters:linearRGB;solid-color:#000000;solid-opacity:1;fill:#000000;fill-opacity:1;fill-rule:nonzero;stroke:none;stroke-width:1px;stroke-linecap:butt;stroke-linejoin:miter;stroke-miterlimit:4;stroke-dasharray:none;stroke-dashoffset:0;stroke-opacity:1;color-rendering:auto;image-rendering:auto;shape-rendering:auto;text-rendering:auto;enable-background:accumulate"
       d="M 150 2.5351562 A 77.464767 77.464775 0 0 0 72.535156 80 A 77.464767 77.464775 0 0 0 150 157.46484 A 77.464767 77.464775 0 0 0 227.46484 80 A 77.464767 77.464775 0 0 0 150 2.5351562 z M 150 40.160156 A 39.839024 39.839027 0 0 1 153.97656 40.359375 A 39.839024 39.839027 0 0 1 157.91406 40.955078 A 39.839024 39.839027 0 0 1 161.77344 41.939453 A 39.839024 39.839027 0 0 1 165.51367 43.306641 A 39.839024 39.839027 0 0 1 169.09961 45.037109 A 39.839024 39.839027 0 0 1 172.49414 47.119141 A 39.839024 39.839027 0 0 1 175.66406 49.529297 A 39.839024 39.839027 0 0 1 178.57812 52.244141 A 39.839024 39.839027 0 0 1 181.20703 55.236328 A 39.839024 39.839027 0 0 1 183.52344 58.474609 A 39.839024 39.839027 0 0 1 185.50391 61.929688 A 39.839024 39.839027 0 0 1 187.13086 65.564453 A 39.839024 39.839027 0 0 1 188.38672 69.34375 A 39.839024 39.839027 0 0 1 189.25977 73.228516 A 39.839024 39.839027 0 0 1 189.73828 77.181641 A 39.839024 39.839027 0 0 1 189.83984 80 A 39.839024 39.839027 0 0 1 189.64062 83.976562 A 39.839024 39.839027 0 0 1 189.04492 87.914062 A 39.839024 39.839027 0 0 1 188.06055 91.773438 A 39.839024 39.839027 0 0 1 186.69336 95.513672 A 39.839024 39.839027 0 0 1 184.96289 99.099609 A 39.839024 39.839027 0 0 1 182.88086 102.49414 A 39.839024 39.839027 0 0 1 180.4707 105.66406 A 39.839024 39.839027 0 0 1 177.75586 108.57812 A 39.839024 39.839027 0 0 1 174.76367 111.20703 A 39.839024 39.839027 0 0 1 171.52539 113.52344 A 39.839024 39.839027 0 0 1 168.07031 115.50391 A 39.839024 39.839027 0 0 1 164.43555 117.13086 A 39.839024 39.839027 0 0 1 160.65625 118.38672 A 39.839024 39.839027 0 0 1 156.77148 119.25977 A 39.839024 39.839027 0 0 1 152.81836 119.73828 A 39.839024 39.839027 0 0 1 150 119.83984 A 39.839024 39.839027 0 0 1 146.02344 119.64062 A 39.839024 39.839027 0 0 1 142.08594 119.04492 A 39.839024 39.839027 0 0 1 138.22656 118.06055 A 39.839024 39.839027 0 0 1 134.48633 116.69336 A 39.839024 39.839027 0 0 1 130.90039 114.96289 A 39.839024 39.839027 0 0 1 127.50586 112.88086 A 39.839024 39.839027 0 0 1 124.33594 110.4707 A 39.839024 39.839027 0 0 1 121.42188 107.75586 A 39.839024 39.839027 0 0 1 118.79297 104.76367 A 39.839024 39.839027 0 0 1 116.47656 101.52539 A 39.839024 39.839027 0 0 1 114.49609 98.070312 A 39.839024 39.839027 0 0 1 112.86914 94.435547 A 39.839024 39.839027 0 0 1 111.61328 90.65625 A 39.839024 39.839027 0 0 1 110.74023 86.771484 A 39.839024 39.839027 0 0 1 110.26172 82.818359 A 39.839024 39.839027 0 0 1 110.16016 80 A 39.839024 39.839027 0 0 1 110.35938 76.023438 A 39.839024 39.839027 0 0 1 110.95508 72.085938 A 39.839024 39.839027 0 0 1 111.93945 68.226562 A 39.839024 39.839027 0 0 1 113.30664 64.486328 A 39.839024 39.839027 0 0 1 115.03711 60.900391 A 39.839024 39.839027 0 0 1 117.11914 57.505859 A 39.839024 39.839027 0 0 1 119.5293 54.335938 A 39.839024 39.839027 0 0 1 122.24414 51.421875 A 39.839024 39.839027 0 0 1 125.23633 48.792969 A 39.839024 39.839027 0 0 1 128.47461 46.476562 A 39.839024 39.839027 0 0 1 131.92969 44.496094 A 39.839024 39.839027 0 0 1 135.56445 42.869141 A 39.839024 39.839027 0 0 1 139.34375 41.613281 A 39.839024 39.839027 0 0 1 143.22852 40.740234 A 39.839024 39.839027 0 0 1 147.18164 40.261719 A 39.839024 39.839027 0 0 1 150 40.160156 z "
       id="path3443-7-0-8-6-3-0-9-8-0-2-2" />
  </g>
</svg>
