<?xml version="1.0" encoding="UTF-8" standalone="no"?>
<svg
   xmlns:dc="http://purl.org/dc/elements/1.1/"
   xmlns:cc="http://creativecommons.org/ns#"
   xmlns:rdf="http://www.w3.org/1999/02/22-rdf-syntax-ns#"
   xmlns:svg="http://www.w3.org/2000/svg"
   xmlns="http://www.w3.org/2000/svg"
   version="1.1"
   id="svg2"
   viewBox="0 0 300 160"
   height="160"
   width="300">
  <defs
     id="defs4" />
  <metadata
     id="metadata7">
    <rdf:RDF>
      <cc:Work
         rdf:about="">
        <dc:format>image/svg+xml</dc:format>
        <dc:type
           rdf:resource="http://purl.org/dc/dcmitype/StillImage" />
        <dc:title></dc:title>
      </cc:Work>
    </rdf:RDF>
  </metadata>
  <g
     transform="translate(0,-892.36216)"
     id="layer1">
    <g
       id="g5561"
       style="display:inline"
       transform="matrix(1.0061023,0,0,1.0061023,-402.50072,399.95673)">
      <g
         transform="matrix(0.8,0,0,0.8,324.00678,372.18673)"
         id="g7392-5-8-7-93-7">
        <ellipse
           style="color:#000000;clip-rule:nonzero;display:inline;overflow:visible;visibility:visible;opacity:1;isolation:auto;mix-blend-mode:normal;color-interpolation:sRGB;color-interpolation-filters:linearRGB;solid-color:#000000;solid-opacity:1;fill:#000000;fill-opacity:1;fill-rule:nonzero;stroke:none;stroke-width:1px;stroke-linecap:butt;stroke-linejoin:miter;stroke-miterlimit:4;stroke-dasharray:none;stroke-dashoffset:0;stroke-opacity:1;color-rendering:auto;image-rendering:auto;shape-rendering:auto;text-rendering:auto;enable-background:accumulate"
           id="path3443-7-0-8-6-3-1-6-7-3-8-5-4"
           cx="245.93362"
           cy="-169.55064"
           transform="matrix(0,1,-1,0,0,0)"
           rx="72"
           ry="71.999992" />
        <ellipse
           style="color:#000000;clip-rule:nonzero;display:inline;overflow:visible;visibility:visible;opacity:1;isolation:auto;mix-blend-mode:normal;color-interpolation:sRGB;color-interpolation-filters:linearRGB;solid-color:#000000;solid-opacity:1;fill:#000000;fill-opacity:1;fill-rule:nonzero;stroke:none;stroke-width:1px;stroke-linecap:butt;stroke-linejoin:miter;stroke-miterlimit:4;stroke-dasharray:none;stroke-dashoffset:0;stroke-opacity:1;color-rendering:auto;image-rendering:auto;shape-rendering:auto;text-rendering:auto;enable-background:accumulate"
           id="path3443-7-0-8-6-3-5-8-2-4-2-45-4-5"
           cx="245.93362"
           cy="-393.30652"
           transform="matrix(0,1,-1,0,0,0)"
           rx="72"
           ry="71.999992" />
        <ellipse
           style="color:#000000;clip-rule:nonzero;display:inline;overflow:visible;visibility:visible;opacity:1;isolation:auto;mix-blend-mode:normal;color-interpolation:sRGB;color-interpolation-filters:linearRGB;solid-color:#000000;solid-opacity:1;fill:#000000;fill-opacity:1;fill-rule:nonzero;stroke:none;stroke-width:1px;stroke-linecap:butt;stroke-linejoin:miter;stroke-miterlimit:4;stroke-dasharray:none;stroke-dashoffset:0;stroke-opacity:1;color-rendering:auto;image-rendering:auto;shape-rendering:auto;text-rendering:auto;enable-background:accumulate"
           id="path3443-7-0-8-6-3-0-9-9-3-7-03-12-2"
           cx="245.93362"
           cy="-281.42859"
           transform="matrix(0,1,-1,0,0,0)"
           rx="96.24366"
           ry="96.243652" />
      </g>
      <g
         id="g5364">
        <path
           d="m 425.40171,589.54163 18.984,0 0,-12.656 -4.984,0 0,7.672 -5.152,0 0,-13.776 4.2,0 0,-4.984 -4.2,0 0,-12.488 5.152,0 0,7.056 4.984,0 0,-12.04 -18.984,0 0,4.984 3.024,0 0,31.248 -3.024,0 0,4.984 z"
           style="font-style:normal;font-variant:normal;font-weight:normal;font-stretch:condensed;font-size:medium;line-height:125%;font-family:Rockwell;-inkscape-font-specification:'Rockwell, Condensed';text-align:start;letter-spacing:0px;word-spacing:0px;writing-mode:lr-tb;text-anchor:start;fill:#ffffff;fill-opacity:1;stroke:none;stroke-width:1px;stroke-linecap:butt;stroke-linejoin:miter;stroke-opacity:1"
           id="path4936" />
        <path
           d="m 451.70144,589.54163 18.816,0 0,-17.92 -4.984,0 0,12.936 -5.04,0 0,-31.248 3.136,0 0,-4.984 -11.928,0 0,4.984 2.968,0 0,31.248 -2.968,0 0,4.984 z"
           style="font-style:normal;font-variant:normal;font-weight:normal;font-stretch:condensed;font-size:medium;line-height:125%;font-family:Rockwell;-inkscape-font-specification:'Rockwell, Condensed';text-align:start;letter-spacing:0px;word-spacing:0px;writing-mode:lr-tb;text-anchor:start;fill:#ffffff;fill-opacity:1;stroke:none;stroke-width:1px;stroke-linecap:butt;stroke-linejoin:miter;stroke-opacity:1"
           id="path4938" />
        <path
           d="m 479.82206,584.55763 -3.136,0 0,4.984 9.128,0 c 8.288,0 11.984,-4.984 11.984,-11.592 0,-5.432 -2.8,-9.408 -7.224,-10.192 l 0,-0.112 c 3.864,-0.392 6.272,-3.696 6.272,-8.68 0,-6.608 -4.144,-10.64 -10.976,-10.64 l -9.184,0 0,4.984 3.136,0 0,31.248 z m 5.824,-31.248 c 3.752,0 5.32,1.12 5.32,6.216 0,5.824 -2.576,5.936 -5.32,5.992 l 0,-12.208 z m 0,17.192 c 2.296,-0.056 6.104,0 6.104,7.168 0,4.872 -1.848,6.888 -6.104,6.888 l 0,-14.056 z"
           style="font-style:normal;font-variant:normal;font-weight:normal;font-stretch:condensed;font-size:medium;line-height:125%;font-family:Rockwell;-inkscape-font-specification:'Rockwell, Condensed';text-align:start;letter-spacing:0px;word-spacing:0px;writing-mode:lr-tb;text-anchor:start;fill:#ffffff;fill-opacity:1;stroke:none;stroke-width:1px;stroke-linecap:butt;stroke-linejoin:miter;stroke-opacity:1"
           id="path4940" />
        <path
           id="path4942"
           d="m 523.43164,548.50977 0,4.98437 3.02539,0 5.82422,0 c 3.84135,-0.0499 5.31901,3.09716 5.59766,12.68359 l -5.59766,0 0,-6.33789 -5.82422,0 0,6.33789 -4.97656,0 a 9.2857141,9.2857141 0 0 0 -8.79688,-6.3457 9.2857141,9.2857141 0 0 0 -9.28711,9.28516 9.2857141,9.2857141 0 0 0 9.28711,9.28515 9.2857141,9.2857141 0 0 0 8.79883,-6.3457 l 4.97461,0 0,6.33984 5.82422,0 0,-6.33984 5.61719,0 c -0.1937,9.29856 -1.70841,12.63344 -5.61719,12.68555 l -5.82422,0 -3.02539,0 0,4.98242 7.61719,0 c 8.904,0 13.27148,-6.32745 13.27148,-20.43945 0,-15.568 -4.92745,-20.77539 -13.43945,-20.77539 l -7.44922,0 z m -10.74805,16.08398 a 4.2857146,4.5238099 0 0 1 4.28516,4.52344 4.2857146,4.5238099 0 0 1 -4.28516,4.52343 4.2857146,4.5238099 0 0 1 -4.28711,-4.52343 4.2857146,4.5238099 0 0 1 4.28711,-4.52344 z"
           style="font-style:normal;font-variant:normal;font-weight:normal;font-stretch:condensed;font-size:medium;line-height:125%;font-family:Rockwell;-inkscape-font-specification:'Rockwell, Condensed';text-align:start;letter-spacing:0px;word-spacing:0px;writing-mode:lr-tb;text-anchor:start;fill:#ffffff;fill-opacity:1;stroke:none;stroke-width:1px;stroke-linecap:butt;stroke-linejoin:miter;stroke-opacity:1" />
        <path
           d="m 551.18913,589.54163 12.152,0 0,-4.984 -3.192,0 0,-31.248 3.192,0 0,-4.984 -12.152,0 0,4.984 3.136,0 0,31.248 -3.136,0 0,4.984 z"
           style="font-style:normal;font-variant:normal;font-weight:normal;font-stretch:condensed;font-size:medium;line-height:125%;font-family:Rockwell;-inkscape-font-specification:'Rockwell, Condensed';text-align:start;letter-spacing:0px;word-spacing:0px;writing-mode:lr-tb;text-anchor:start;fill:#ffffff;fill-opacity:1;stroke:none;stroke-width:1px;stroke-linecap:butt;stroke-linejoin:miter;stroke-opacity:1"
           id="path4944" />
        <path
           d="m 580.41662,574.64563 2.8,0 c 0,8.512 -1.12,10.136 -3.08,10.136 -2.576,0 -3.08,-2.296 -3.08,-16.296 0,-13.16 0.672,-15.4 3.024,-15.4 2.464,0 3.304,3.92 3.304,8.624 l 4.984,0 0,-13.384 -4.984,0 0,1.568 c -1.568,-1.68 -2.688,-2.24 -4.424,-2.24 -6.104,0 -8.288,7.728 -8.288,21.56 0,10.304 0.728,15.344 4.256,18.872 1.624,1.624 3.192,2.128 5.04,2.128 6.048,0 9.296,-6.44 9.296,-16.8 l 0,-3.752 -8.848,0 0,4.984 z"
           style="font-style:normal;font-variant:normal;font-weight:normal;font-stretch:condensed;font-size:medium;line-height:125%;font-family:Rockwell;-inkscape-font-specification:'Rockwell, Condensed';text-align:start;letter-spacing:0px;word-spacing:0px;writing-mode:lr-tb;text-anchor:start;fill:#ffffff;fill-opacity:1;stroke:none;stroke-width:1px;stroke-linecap:butt;stroke-linejoin:miter;stroke-opacity:1"
           id="path4946" />
        <path
           d="m 607.20724,574.64563 2.8,0 c 0,8.512 -1.12,10.136 -3.08,10.136 -2.576,0 -3.08,-2.296 -3.08,-16.296 0,-13.16 0.672,-15.4 3.024,-15.4 2.464,0 3.304,3.92 3.304,8.624 l 4.984,0 0,-13.384 -4.984,0 0,1.568 c -1.568,-1.68 -2.688,-2.24 -4.424,-2.24 -6.104,0 -8.288,7.728 -8.288,21.56 0,10.304 0.728,15.344 4.256,18.872 1.624,1.624 3.192,2.128 5.04,2.128 6.048,0 9.296,-6.44 9.296,-16.8 l 0,-3.752 -8.848,0 0,4.984 z"
           style="font-style:normal;font-variant:normal;font-weight:normal;font-stretch:condensed;font-size:medium;line-height:125%;font-family:Rockwell;-inkscape-font-specification:'Rockwell, Condensed';text-align:start;letter-spacing:0px;word-spacing:0px;writing-mode:lr-tb;text-anchor:start;fill:#ffffff;fill-opacity:1;stroke:none;stroke-width:1px;stroke-linecap:butt;stroke-linejoin:miter;stroke-opacity:1"
           id="path4948" />
        <path
           d="m 623.41384,589.54163 18.984,0 0,-12.656 -4.984,0 0,7.672 -5.152,0 0,-13.776 4.2,0 0,-4.984 -4.2,0 0,-12.488 5.152,0 0,7.056 4.984,0 0,-12.04 -18.984,0 0,4.984 3.024,0 0,31.248 -3.024,0 0,4.984 z"
           style="font-style:normal;font-variant:normal;font-weight:normal;font-stretch:condensed;font-size:medium;line-height:125%;font-family:Rockwell;-inkscape-font-specification:'Rockwell, Condensed';text-align:start;letter-spacing:0px;word-spacing:0px;writing-mode:lr-tb;text-anchor:start;fill:#ffffff;fill-opacity:1;stroke:none;stroke-width:1px;stroke-linecap:butt;stroke-linejoin:miter;stroke-opacity:1"
           id="path4951" />
        <path
           d="m 658.56157,570.83763 c 0.784,0 1.736,-0.056 2.296,-0.168 l 5.096,18.872 6.944,0 0,-4.984 -2.464,0 -4.48,-15.344 c 3.304,-2.128 4.928,-5.32 4.928,-9.688 0,-6.496 -4.032,-11.2 -11.312,-11.2 l -10.304,0 0,4.984 3.472,0 0,31.248 -3.472,0 0,4.984 12.376,0 0,-4.984 -3.08,0 0,-13.72 z m 0,-17.528 c 4.872,0 6.216,2.072 6.216,6.216 0,4.76 -2.184,6.328 -6.216,6.328 l 0,-12.544 z"
           style="font-style:normal;font-variant:normal;font-weight:normal;font-stretch:condensed;font-size:medium;line-height:125%;font-family:Rockwell;-inkscape-font-specification:'Rockwell, Condensed';text-align:start;letter-spacing:0px;word-spacing:0px;writing-mode:lr-tb;text-anchor:start;fill:#ffffff;fill-opacity:1;stroke:none;stroke-width:1px;stroke-linecap:butt;stroke-linejoin:miter;stroke-opacity:1"
           id="path4953" />
      </g>
    </g>
  </g>
</svg>
