<?xml version="1.0" encoding="UTF-8" standalone="no"?>
<svg
   xmlns:dc="http://purl.org/dc/elements/1.1/"
   xmlns:cc="http://creativecommons.org/ns#"
   xmlns:rdf="http://www.w3.org/1999/02/22-rdf-syntax-ns#"
   xmlns:svg="http://www.w3.org/2000/svg"
   xmlns="http://www.w3.org/2000/svg"
   version="1.1"
   id="svg17491"
   viewBox="0 0 300 300"
   height="300"
   width="300">
  <defs
     id="defs17493" />
  <metadata
     id="metadata17496">
    <rdf:RDF>
      <cc:Work
         rdf:about="">
        <dc:format>image/svg+xml</dc:format>
        <dc:type
           rdf:resource="http://purl.org/dc/dcmitype/StillImage" />
        <dc:title></dc:title>
      </cc:Work>
    </rdf:RDF>
  </metadata>
  <g
     transform="translate(0,-752.36216)"
     id="layer1">
    <circle
       r="148.81889"
       style="color:#000000;clip-rule:nonzero;display:inline;overflow:visible;visibility:visible;opacity:1;isolation:auto;mix-blend-mode:normal;color-interpolation:sRGB;color-interpolation-filters:linearRGB;solid-color:#000000;solid-opacity:1;fill:#fade4a;fill-opacity:1;fill-rule:nonzero;stroke:none;stroke-width:1px;stroke-linecap:butt;stroke-linejoin:miter;stroke-miterlimit:4;stroke-dasharray:none;stroke-dashoffset:0;stroke-opacity:1;color-rendering:auto;image-rendering:auto;shape-rendering:auto;text-rendering:auto;enable-background:accumulate"
       id="path3443-0-5-0-4-1-6-3-3-7-5-0"
       cx="902.36218"
       cy="-150"
       transform="matrix(0,1,-1,0,0,0)" />
    <path
       id="path3443-7-0-8-6-3-1-6-7-3-3-0"
       d="m 51.54855,839.00251 a 63.3596,63.359608 0 0 0 -42.72852,16.66602 148.81889,148.81889 0 0 0 -7.63867,46.69336 148.81889,148.81889 0 0 0 7.73633,46.77148 63.3596,63.359608 0 0 0 42.63086,16.58789 63.3596,63.359608 0 0 0 63.35937,-63.35937 63.3596,63.359608 0 0 0 -63.35937,-63.35938 z"
       style="color:#000000;clip-rule:nonzero;display:inline;overflow:visible;visibility:visible;opacity:1;isolation:auto;mix-blend-mode:normal;color-interpolation:sRGB;color-interpolation-filters:linearRGB;solid-color:#000000;solid-opacity:1;fill:#e88f28;fill-opacity:1;fill-rule:nonzero;stroke:none;stroke-width:1px;stroke-linecap:butt;stroke-linejoin:miter;stroke-miterlimit:4;stroke-dasharray:none;stroke-dashoffset:0;stroke-opacity:1;color-rendering:auto;image-rendering:auto;shape-rendering:auto;text-rendering:auto;enable-background:accumulate" />
    <path
       id="path3443-7-0-8-6-3-5-8-2-4-2-4-7"
       d="m 248.45284,839.00251 a 63.3596,63.359608 0 0 0 -63.36133,63.35938 63.3596,63.359608 0 0 0 63.36133,63.35937 63.3596,63.359608 0 0 0 42.72852,-16.66601 148.81889,148.81889 0 0 0 7.63672,-46.69336 148.81889,148.81889 0 0 0 -7.73438,-46.76954 63.3596,63.359608 0 0 0 -42.63086,-16.58984 z"
       style="color:#000000;clip-rule:nonzero;display:inline;overflow:visible;visibility:visible;opacity:1;isolation:auto;mix-blend-mode:normal;color-interpolation:sRGB;color-interpolation-filters:linearRGB;solid-color:#000000;solid-opacity:1;fill:#e88f28;fill-opacity:1;fill-rule:nonzero;stroke:none;stroke-width:1px;stroke-linecap:butt;stroke-linejoin:miter;stroke-miterlimit:4;stroke-dasharray:none;stroke-dashoffset:0;stroke-opacity:1;color-rendering:auto;image-rendering:auto;shape-rendering:auto;text-rendering:auto;enable-background:accumulate" />
    <circle
       r="84.693893"
       style="color:#000000;clip-rule:nonzero;display:inline;overflow:visible;visibility:visible;opacity:1;isolation:auto;mix-blend-mode:normal;color-interpolation:sRGB;color-interpolation-filters:linearRGB;solid-color:#000000;solid-opacity:1;fill:#e88f28;fill-opacity:1;fill-rule:nonzero;stroke:none;stroke-width:1px;stroke-linecap:butt;stroke-linejoin:miter;stroke-miterlimit:4;stroke-dasharray:none;stroke-dashoffset:0;stroke-opacity:1;color-rendering:auto;image-rendering:auto;shape-rendering:auto;text-rendering:auto;enable-background:accumulate"
       id="path3443-7-0-8-6-3-0-9-9-3-7-0-5"
       cx="902.36224"
       cy="-150"
       transform="matrix(0,1,-1,0,0,0)" />
    <g
       id="g17447"
       style="display:inline"
       transform="translate(-16.53543,735.82673)">
      <g
         transform="matrix(0.3192,0,0,0.3192,76.703432,-21.111169)"
         id="g7392-5-8-7-2-6-8-1">
        <ellipse
           style="color:#000000;clip-rule:nonzero;display:inline;overflow:visible;visibility:visible;opacity:1;isolation:auto;mix-blend-mode:normal;color-interpolation:sRGB;color-interpolation-filters:linearRGB;solid-color:#000000;solid-opacity:1;fill:#000000;fill-opacity:1;fill-rule:nonzero;stroke:none;stroke-width:1px;stroke-linecap:butt;stroke-linejoin:miter;stroke-miterlimit:4;stroke-dasharray:none;stroke-dashoffset:0;stroke-opacity:1;color-rendering:auto;image-rendering:auto;shape-rendering:auto;text-rendering:auto;enable-background:accumulate"
           id="path3443-7-0-8-6-3-1-6-7-3-8-7-8-8-5"
           cx="245.93362"
           cy="-169.55064"
           transform="matrix(0,1,-1,0,0,0)"
           rx="72"
           ry="71.999992" />
        <ellipse
           style="color:#000000;clip-rule:nonzero;display:inline;overflow:visible;visibility:visible;opacity:1;isolation:auto;mix-blend-mode:normal;color-interpolation:sRGB;color-interpolation-filters:linearRGB;solid-color:#000000;solid-opacity:1;fill:#000000;fill-opacity:1;fill-rule:nonzero;stroke:none;stroke-width:1px;stroke-linecap:butt;stroke-linejoin:miter;stroke-miterlimit:4;stroke-dasharray:none;stroke-dashoffset:0;stroke-opacity:1;color-rendering:auto;image-rendering:auto;shape-rendering:auto;text-rendering:auto;enable-background:accumulate"
           id="path3443-7-0-8-6-3-5-8-2-4-2-45-6-0-4-0"
           cx="245.93362"
           cy="-393.30652"
           transform="matrix(0,1,-1,0,0,0)"
           rx="72"
           ry="71.999992" />
        <ellipse
           style="color:#000000;clip-rule:nonzero;display:inline;overflow:visible;visibility:visible;opacity:1;isolation:auto;mix-blend-mode:normal;color-interpolation:sRGB;color-interpolation-filters:linearRGB;solid-color:#000000;solid-opacity:1;fill:#000000;fill-opacity:1;fill-rule:nonzero;stroke:none;stroke-width:1px;stroke-linecap:butt;stroke-linejoin:miter;stroke-miterlimit:4;stroke-dasharray:none;stroke-dashoffset:0;stroke-opacity:1;color-rendering:auto;image-rendering:auto;shape-rendering:auto;text-rendering:auto;enable-background:accumulate"
           id="path3443-7-0-8-6-3-0-9-9-3-7-03-1-8-3-4"
           cx="245.93362"
           cy="-281.42859"
           transform="matrix(0,1,-1,0,0,0)"
           rx="96.24366"
           ry="96.243652" />
      </g>
      <g
         id="g17436">
        <path
           d="m 117.16001,65.61343 7.57462,0 0,-5.049744 -1.98862,0 0,3.061128 -2.05565,0 0,-5.496624 1.6758,0 0,-1.988616 -1.6758,0 0,-4.982712 2.05565,0 0,2.815344 1.98862,0 0,-4.80396 -7.57462,0 0,1.988616 1.20658,0 0,12.467952 -1.20658,0 0,1.988616 z"
           style="font-style:normal;font-variant:normal;font-weight:normal;font-stretch:condensed;font-size:medium;line-height:125%;font-family:Rockwell;-inkscape-font-specification:'Rockwell, Condensed';text-align:start;letter-spacing:0px;word-spacing:0px;writing-mode:lr-tb;text-anchor:start;fill:#ffffff;fill-opacity:1;stroke:none;stroke-width:1px;stroke-linecap:butt;stroke-linejoin:miter;stroke-opacity:1"
           id="path4936-7-6" />
        <path
           d="m 127.6536,65.61343 7.50759,0 0,-7.15008 -1.98862,0 0,5.161464 -2.01096,0 0,-12.467952 1.25126,0 0,-1.988616 -4.75927,0 0,1.988616 1.18423,0 0,12.467952 -1.18423,0 0,1.988616 z"
           style="font-style:normal;font-variant:normal;font-weight:normal;font-stretch:condensed;font-size:medium;line-height:125%;font-family:Rockwell;-inkscape-font-specification:'Rockwell, Condensed';text-align:start;letter-spacing:0px;word-spacing:0px;writing-mode:lr-tb;text-anchor:start;fill:#ffffff;fill-opacity:1;stroke:none;stroke-width:1px;stroke-linecap:butt;stroke-linejoin:miter;stroke-opacity:1"
           id="path4938-99-7" />
        <path
           d="m 138.87373,63.624814 -1.25126,0 0,1.988616 3.64207,0 c 3.30691,0 4.78161,-1.988616 4.78161,-4.625208 0,-2.167368 -1.1172,-3.753792 -2.88237,-4.066608 l 0,-0.04469 c 1.54173,-0.156408 2.50253,-1.474704 2.50253,-3.46332 0,-2.636592 -1.65346,-4.24536 -4.37943,-4.24536 l -3.66441,0 0,1.988616 1.25126,0 0,12.467952 z m 2.32378,-12.467952 c 1.49704,0 2.12268,0.44688 2.12268,2.480184 0,2.323776 -1.02783,2.368464 -2.12268,2.390808 l 0,-4.870992 z m 0,6.859608 c 0.9161,-0.02234 2.43549,0 2.43549,2.860032 0,1.943928 -0.73735,2.748312 -2.43549,2.748312 l 0,-5.608344 z"
           style="font-style:normal;font-variant:normal;font-weight:normal;font-stretch:condensed;font-size:medium;line-height:125%;font-family:Rockwell;-inkscape-font-specification:'Rockwell, Condensed';text-align:start;letter-spacing:0px;word-spacing:0px;writing-mode:lr-tb;text-anchor:start;fill:#ffffff;fill-opacity:1;stroke:none;stroke-width:1px;stroke-linecap:butt;stroke-linejoin:miter;stroke-opacity:1"
           id="path4940-3-4" />
        <path
           id="path4942-24-3"
           d="m 156.27395,49.241718 0,1.988764 1.20713,0 2.32387,0 c 1.5327,-0.01991 2.12228,1.235767 2.23346,5.060752 l -2.23346,0 0,-2.528818 -2.32387,0 0,2.528818 -1.98564,0 a 3.7049999,3.7049999 0 0 0 -3.50996,-2.531934 3.7049999,3.7049999 0 0 0 -3.70556,3.704779 3.7049999,3.7049999 0 0 0 3.70556,3.704775 3.7049999,3.7049999 0 0 0 3.51073,-2.531935 l 1.98487,0 0,2.529597 2.32387,0 0,-2.529597 2.24126,0 c -0.0773,3.710126 -0.68166,5.040743 -2.24126,5.061535 l -2.32387,0 -1.20713,0 0,1.987985 3.03926,0 c 3.5527,0 5.29532,-2.524652 5.29532,-8.15534 0,-6.211632 -1.96605,-8.289381 -5.36234,-8.289381 l -2.97224,0 z m -4.28847,6.417508 a 1.7100001,1.8050002 0 0 1 1.70978,1.804853 1.7100001,1.8050002 0 0 1 -1.70978,1.804848 1.7100001,1.8050002 0 0 1 -1.71056,-1.804848 1.7100001,1.8050002 0 0 1 1.71056,-1.804853 z"
           style="font-style:normal;font-variant:normal;font-weight:normal;font-stretch:condensed;font-size:medium;line-height:125%;font-family:Rockwell;-inkscape-font-specification:'Rockwell, Condensed';text-align:start;letter-spacing:0px;word-spacing:0px;writing-mode:lr-tb;text-anchor:start;fill:#ffffff;fill-opacity:1;stroke:none;stroke-width:1px;stroke-linecap:butt;stroke-linejoin:miter;stroke-opacity:1" />
        <path
           d="m 167.34919,65.61343 4.84865,0 0,-1.988616 -1.27361,0 0,-12.467952 1.27361,0 0,-1.988616 -4.84865,0 0,1.988616 1.25126,0 0,12.467952 -1.25126,0 0,1.988616 z"
           style="font-style:normal;font-variant:normal;font-weight:normal;font-stretch:condensed;font-size:medium;line-height:125%;font-family:Rockwell;-inkscape-font-specification:'Rockwell, Condensed';text-align:start;letter-spacing:0px;word-spacing:0px;writing-mode:lr-tb;text-anchor:start;fill:#ffffff;fill-opacity:1;stroke:none;stroke-width:1px;stroke-linecap:butt;stroke-linejoin:miter;stroke-opacity:1"
           id="path4944-37-0" />
        <path
           d="m 179.01096,59.669926 1.1172,0 c 0,3.396288 -0.44688,4.044264 -1.22892,4.044264 -1.02782,0 -1.22892,-0.916104 -1.22892,-6.502104 0,-5.25084 0.26813,-6.1446 1.20658,-6.1446 0.98313,0 1.31829,1.56408 1.31829,3.440976 l 1.98862,0 0,-5.340216 -1.98862,0 0,0.625632 c -0.62563,-0.67032 -1.07251,-0.89376 -1.76517,-0.89376 -2.4355,0 -3.30692,3.083472 -3.30692,8.60244 0,4.111296 0.29048,6.122256 1.69815,7.529928 0.64797,0.647976 1.27361,0.849072 2.01096,0.849072 2.41315,0 3.7091,-2.56956 3.7091,-6.7032 l 0,-1.497048 -3.53035,0 0,1.988616 z"
           style="font-style:normal;font-variant:normal;font-weight:normal;font-stretch:condensed;font-size:medium;line-height:125%;font-family:Rockwell;-inkscape-font-specification:'Rockwell, Condensed';text-align:start;letter-spacing:0px;word-spacing:0px;writing-mode:lr-tb;text-anchor:start;fill:#ffffff;fill-opacity:1;stroke:none;stroke-width:1px;stroke-linecap:butt;stroke-linejoin:miter;stroke-opacity:1"
           id="path4946-12-9" />
        <path
           d="m 189.70042,59.669926 1.1172,0 c 0,3.396288 -0.44688,4.044264 -1.22892,4.044264 -1.02783,0 -1.22892,-0.916104 -1.22892,-6.502104 0,-5.25084 0.26812,-6.1446 1.20657,-6.1446 0.98314,0 1.3183,1.56408 1.3183,3.440976 l 1.98861,0 0,-5.340216 -1.98861,0 0,0.625632 c -0.62563,-0.67032 -1.07251,-0.89376 -1.76518,-0.89376 -2.43549,0 -3.30691,3.083472 -3.30691,8.60244 0,4.111296 0.29047,6.122256 1.69814,7.529928 0.64798,0.647976 1.27361,0.849072 2.01096,0.849072 2.41316,0 3.70911,-2.56956 3.70911,-6.7032 l 0,-1.497048 -3.53035,0 0,1.988616 z"
           style="font-style:normal;font-variant:normal;font-weight:normal;font-stretch:condensed;font-size:medium;line-height:125%;font-family:Rockwell;-inkscape-font-specification:'Rockwell, Condensed';text-align:start;letter-spacing:0px;word-spacing:0px;writing-mode:lr-tb;text-anchor:start;fill:#ffffff;fill-opacity:1;stroke:none;stroke-width:1px;stroke-linecap:butt;stroke-linejoin:miter;stroke-opacity:1"
           id="path4948-2-6" />
        <path
           d="m 196.16685,65.61343 7.57462,0 0,-5.049744 -1.98862,0 0,3.061128 -2.05565,0 0,-5.496624 1.6758,0 0,-1.988616 -1.6758,0 0,-4.982712 2.05565,0 0,2.815344 1.98862,0 0,-4.80396 -7.57462,0 0,1.988616 1.20658,0 0,12.467952 -1.20658,0 0,1.988616 z"
           style="font-style:normal;font-variant:normal;font-weight:normal;font-stretch:condensed;font-size:medium;line-height:125%;font-family:Rockwell;-inkscape-font-specification:'Rockwell, Condensed';text-align:start;letter-spacing:0px;word-spacing:0px;writing-mode:lr-tb;text-anchor:start;fill:#ffffff;fill-opacity:1;stroke:none;stroke-width:1px;stroke-linecap:butt;stroke-linejoin:miter;stroke-opacity:1"
           id="path4951-0-6" />
        <path
           d="m 210.19079,58.150534 c 0.31282,0 0.69267,-0.02234 0.91611,-0.06703 l 2.0333,7.529928 2.77066,0 0,-1.988616 -0.98314,0 -1.78752,-6.122256 c 1.3183,-0.849072 1.96627,-2.12268 1.96627,-3.865512 0,-2.591904 -1.60876,-4.4688 -4.51348,-4.4688 l -4.1113,0 0,1.988616 1.38533,0 0,12.467952 -1.38533,0 0,1.988616 4.93802,0 0,-1.988616 -1.22892,0 0,-5.47428 z m 0,-6.993672 c 1.94393,0 2.48019,0.826728 2.48019,2.480184 0,1.89924 -0.87142,2.524872 -2.48019,2.524872 l 0,-5.005056 z"
           style="font-style:normal;font-variant:normal;font-weight:normal;font-stretch:condensed;font-size:medium;line-height:125%;font-family:Rockwell;-inkscape-font-specification:'Rockwell, Condensed';text-align:start;letter-spacing:0px;word-spacing:0px;writing-mode:lr-tb;text-anchor:start;fill:#ffffff;fill-opacity:1;stroke:none;stroke-width:1px;stroke-linecap:butt;stroke-linejoin:miter;stroke-opacity:1"
           id="path4953-21-0" />
      </g>
    </g>
    <circle
       r="67.322838"
       cy="902.36218"
       cx="150"
       id="path4650-2"
       style="color:#000000;clip-rule:nonzero;display:inline;overflow:visible;visibility:visible;opacity:1;isolation:auto;mix-blend-mode:normal;color-interpolation:sRGB;color-interpolation-filters:linearRGB;solid-color:#000000;solid-opacity:1;fill:#ffffff;fill-opacity:1;fill-rule:nonzero;stroke:none;stroke-width:10;stroke-linecap:butt;stroke-linejoin:miter;stroke-miterlimit:4;stroke-dasharray:none;stroke-dashoffset:0;stroke-opacity:1;color-rendering:auto;image-rendering:auto;shape-rendering:auto;text-rendering:auto;enable-background:accumulate" />
  </g>
</svg>
